<?xml version="1.0" encoding="UTF-8"?>
<svg id="Layer_2" data-name="Layer 2" xmlns="http://www.w3.org/2000/svg" viewBox="0 0 90.16 80.67">
  <g id="Layer_2-2" data-name="Layer 2">
    <g>
      <path d="m90.16,12.08v19.18c0,1.8-1.46,3.27-3.27,3.27H3.27c-1.8,0-3.27-1.46-3.27-3.27V3.27C0,1.42,1.52-.05,3.37,0l26.4.8c.83.03,1.62.36,2.2.95l6.14,6.11c.61.61,1.44.95,2.3.95h46.48c1.8,0,3.27,1.46,3.27,3.27Z" style="fill: #e09f00; stroke-width: 0px;"/>
      <path d="m90.16,14.19v63.21c0,1.8-1.46,3.27-3.27,3.27H3.27c-1.8,0-3.27-1.46-3.27-3.27V21.3c0-1.8,1.46-3.27,3.27-3.27h29.74c1.16,0,2.23-.61,2.81-1.61l2.3-3.89c.59-1,1.66-1.61,2.81-1.61h45.96c1.8,0,3.27,1.46,3.27,3.27Z" style="fill: #fbc227; stroke-width: 0px;"/>
    </g>
  </g>
</svg>