<?xml version="1.0" encoding="UTF-8"?>
<svg id="Layer_2" data-name="Layer 2" xmlns="http://www.w3.org/2000/svg" viewBox="0 0 89.95 118.77">
  <g id="Layer_2-2" data-name="Layer 2">
    <g>
      <path d="m88.69,26.82c-.01.17,0,.37-.18.43-1.32.45-1.56,1.74-2.15,2.75-1.12,1.88-1.75,3.94-2.03,6.1-.21,1.61-.26,3.25-.4,4.88-.28,3.31-.23,6.64-.64,9.95-.01.08-.01.16-.01.24-.06,2.57-.08,5.13-.18,7.7-.13,3.52-.28,7.03-.51,10.53-.13,1.99-.12,3.98-.32,5.96-.25,2.48-.02,4.97-.17,7.45-.16,2.59-.22,5.18-.34,7.76-.12,2.56-.19,5.12-.33,7.68-.13,2.44.05,4.92-.61,7.32-.66,2.39-1.48,4.77-3.41,6.41-2.14,1.83-4.36,3.61-7.28,4.18-2.75.53-5.43,1.39-8.2,1.84-1.19.19-2.39.03-3.59.22-2.59.41-5.21.5-7.83.53-2.53.03-5.05.1-7.57-.32-1.11-.18-2.26-.03-3.41-.15-2.25-.24-4.47-.71-6.71-.92-2.04-.19-3.95-.84-5.88-1.37-2.02-.56-3.93-1.48-5.82-2.39-2.46-1.17-4.68-2.66-6.4-4.83-.63-.79-1.41-1.44-2.13-2.16-.21-.21-.45-.41-.43-.76.19.03.33.11.5.22,1.31.8,2.61,1.61,4.06,2.12,1.23.7,2.55,1.18,3.92,1.51,1.42.69,2.95,1,4.48,1.32,1.56.45,3.12.94,4.76.97.46.25.96.36,1.48.33.1.01.19.02.29.04.55.15,1.1.27,1.67.27.21.02.42.03.63.05.6.25,1.23.09,1.84.13,1.46.38,2.97.37,4.46.48,1.9.05,3.8.11,5.7.16.79.09,1.57-.05,2.35-.15.23-.03.47-.06.4-.37-.33-1.6.12-3.19.06-4.79-.01-.34-.08-.75.48-.75,0,1.59.03,3.19-.02,4.79-.03,1.13-.07,1.13,1.01,1.1,1.46-.11,2.93-.22,4.39-.35.34-.03.7-.11.71-.62.03-.95.11-1.9.15-2.85.09-2.01.03-4.03.12-6.05.14-3.05.08-6.11.2-9.16,0-.43,0-.87,0-1.3,0-.28,0-.56,0-.83,0-.49.01-.99.01-1.48,0-.49-.02-.98-.02-1.47.15-.98.23-1.95.17-2.94,0-.5,0-.99,0-1.48-.02-.79.14-1.58.13-2.36-.03-3.59.2-7.18.19-10.77,0-.22,0-.44,0-.66,0-.32,0-.65,0-.98,0-.71,0-1.43,0-2.14.06-.29.16-.58.17-.87.08-3.82.13-7.64.32-11.45.11-2.28.04-4.58.13-6.87.18-4.34.16-8.68.22-13.01.02-1.31.01-2.62.02-3.94.29-1.08.08-2.18.13-3.27,0-.53.01-1.07.02-1.6,1.53,0,3.06,0,4.59,0,0,.7,0,1.4,0,2.11-.01,1.04-.1,2.07-.14,3.1-.12,3.55-.13,7.1-.2,10.65-.03,1.25-.09,2.51-.11,3.76-.09,4.45-.21,8.89-.34,13.34-.08,2.67-.13,5.34-.16,8.01-.04,3.74-.07,7.48-.35,11.21-.17,2.23.02,4.47-.15,6.71-.18,2.41.02,4.85-.18,7.28-.18,2.22-.1,4.47-.13,6.71-.06,3.99-.29,7.98-.24,11.97,0,.41.07.57.48.48,1.14-.25,2.29-.51,3.44-.74.39-.08.55-.26.55-.66,0-2.65.21-5.29.3-7.93.09-2.56.23-5.12.32-7.68.1-2.83.23-5.66.33-8.5.1-2.59.24-5.17.32-7.76.11-3.57.38-7.13.5-10.7.08-2.34.24-4.69.31-7.03.11-4.17.33-8.34.51-12.51.09-2.34.21-4.69.32-7.02.17-3.57.24-7.15.36-10.72.13-1.32.2-2.64.17-3.96.6-.16,1.21-.15,1.83-.15.98,0,1.96-.02,2.94-.02l-.03.06c-.03.81.16,1.64-.15,2.44-.06,3.54-.33,7.07-.46,10.61-.06,1.65-.11,3.31-.18,4.97-.15,3.59-.3,7.18-.48,10.77-.12,2.36-.24,4.72-.33,7.09-.14,3.73-.3,7.46-.51,11.18-.12,2.15-.04,4.31-.21,6.46-.1,1.31-.07,2.61-.15,3.92-.18,3.01-.43,6.02-.32,9.03-.25,1.01-.31,2.06-.3,3.08.04,2.57-.26,5.13-.19,7.7,0,.13-.03.27-.04.4-.09,1.66-.18,3.32-.29,4.98-.03.45.16.52.53.38.98-.35,1.96-.7,2.94-1.05.31-.11.45-.34.47-.69.1-1.82.23-3.64.32-5.47.13-2.72.18-5.45.37-8.18.06-.95.09-1.91.15-2.86.16-2.67.31-5.33.47-8v-2.3c.16-.65.21-1.3.17-1.97v-.83c.05-.43.15-.86.16-1.29.07-3.05.31-6.09.49-9.13.17-2.93.26-5.86.49-8.8.23-3.04.42-6.09.49-9.14.05-2.62.29-5.23.39-7.84.04-1.11.08-2.23.14-3.35.15-2.8.31-5.6.47-8.4-.08-1.25.34-2.48.11-3.74.9,0,1.81-.2,2.7.1,0,.23,0,.45,0,.67-.02.77-.26,1.52-.16,2.3-.11,1.6-.24,3.21-.33,4.81-.13,2.48-.19,4.96-.36,7.44-.06.9-.1,1.79-.16,2.69-.2,3.15-.43,6.31-.63,9.46-.13,2.1-.19,4.2-.35,6.29-.26,3.45-.49,6.91-.65,10.36-.05,1.03-.11,2.07-.17,3.1-.18,3.35-.39,6.69-.65,10.03-.09,1.09-.1,2.18-.17,3.27-.25,3.72-.57,7.44-.78,11.16-.15,2.61-.26,5.22-.5,7.83-.04.42,0,.84,0,1.38,1.48-.72,2.78-1.42,3.92-2.36.3-.25.48-.59.5-1,.16-2.8.3-5.6.51-8.4.08-1.01.06-2.02.17-3.02.3-2.79.36-5.6.58-8.39.13-1.71.16-3.43.24-5.15.05-1,.08-2.01.15-3.02.19-2.91.44-5.81.63-8.71.14-2.12.19-4.24.35-6.37.26-3.39.44-6.79.65-10.19.11-1.77.21-3.54.35-5.3.25-3.31.37-6.63.65-9.94.13-1.66,0-3.33.3-4.97.05-1.04.11-2.08.17-3.12,0-.32,0-.63,0-.95,1.1,0,2.19,0,3.29,0,.21.17.42.17.63,0,.22,0,.45,0,.67.01Z" style="fill: #161615; stroke-width: 0px;"/>
      <path d="m89.89,20.02c0,.5,0,.99-.01,1.5-.01,1.3-.03,2.6-.04,3.91-.01,1.07-.12,1.21-1.16,1.39-.22,0-.45,0-.67-.01-.21,0-.42,0-.63,0-1.1,0-2.2,0-3.29,0-1.43-.02-2.85-.14-4.27.11-.89-.3-1.8-.11-2.7-.1-.3.01-.6.02-.9.03h-.53c-1.04-.15-2.07-.07-3.11-.04l.03-.06c.71-.3,1.46-.11,2.19-.13,1.76-.03,3.52-.01,5.28-.01-.16-.16-.32-.16-.48-.16-3.31,0-6.62.02-9.93-.02-1.12-.01-1.92-.65-2.56-1.56-.91-1.29-.94-2.95-1.88-4.23-.29-.38-.09-.7.37-.87.29-.11.83-.1.78-.42-.09-.49-.63-.22-.98-.28-.13-.02-.27,0-.41,0-9.05,0-18.1,0-27.16-.01-.3,0-.63.1-.92-.14.24-.27.5-.16.73-.18.97-.1,1.94-.2,2.92-.29,1.9-.18,3.79-.4,5.69-.52,1.39-.09,2.75-.34,4.14-.46,1.41-.12,2.77-.57,4.15-.89,1.91-.43,3.88-.68,5.65-1.58.3-.15.73-.22.73-.67,0-.43-.4-.47-.68-.62-.53-.29-.54-.58-.03-.87.38-.21.79-.36,1.18-.56.5-.28.82-.77.36-1.18-.39-.36-.46-.73-.58-1.17-.03.16-.05.31-.08.46-.03-.02-.06-.03-.09-.06-.01,0-.02-.02-.03-.03.1-1.21-.13-2.33-.77-3.37-.57-.94-1.46-1.53-2.34-2.12-.32-.47-.79-.68-1.33-.69-1.59-.01-3.16-.24-4.75-.18-3.8.15-7.6-.23-11.39-.16-.09,0-.17,0-.25-.01-2.31-.28-4.62-.24-6.9.21-.55.11-1.33.27-1.33,1.15l-.02-.03c-.05.08-.11.15-.17.22-.36.31-.72.63-1.09.94-.25-.1-.51-.23-.7.12-.21.4-.53.78-.64,1.21-.25.92-1.02,1.08-1.74,1.25-.58.13-.84-.26-.65-.85.23-.7.47-1.39.7-2.08.16-.22.33-.43.48-.65,1.02-1.56,2.44-2.55,4.21-3.06.94-.27,1.92-.38,2.9-.38,6.83-.02,13.66-.02,20.49-.02,1.57.02,2.99.55,4.31,1.35,1.43.87,2.39,2.14,3.03,3.66.22.51.5.53.7.07.25-.56.62-.41,1-.31.03.64-.19,1.34.48,1.8.33.92.05,1.89.23,2.82l.02.06h.06c.94.11,1.88.08,2.81.03,1.48,0,2.97,0,4.45,0h3.25c1.16.02,2.31.03,3.47.04.32.25.65.24.98,0,.78.05,1.59-.17,2.34.18.83.38,1.08,1.11,1.09,1.95.01,1.61.02,3.23-.02,4.84-.02.6.15.83.78.8,1.12-.04,2.24.03,3.36-.02.7-.03,1.28.15,1.79.61.03.11.05.22.08.32Z" style="fill: #d0222c; stroke-width: 0px;"/>
      <path d="m16.73,108.19c-1.45-.51-2.75-1.32-4.06-2.12-.17-.1-.31-.19-.5-.22-.56-.6-.82-1.26-.86-2.12-.14-2.93-.41-5.85-.62-8.77-.07-.97-.06-1.95-.16-2.93-.19-2.06-.2-4.13-.36-6.19-.21-2.49-.32-4.99-.5-7.48-.19-2.49-.32-4.99-.5-7.48-.18-2.44-.35-4.88-.47-7.32-.14-2.68-.3-5.37-.5-8.05-.19-2.55-.37-5.09-.5-7.64-.11-2.22-.32-4.44-.49-6.66,0-.22,0-.44,0-.66-.11-1.78-.17-3.56-.34-5.33-.19-2.11-.32-4.21-.3-6.32.3.03.38.28.49.49.18.33.46.59.82.61.75.03,1.42.32,2.13.49.52.13,1.05.09,1.3-.51.07-.18.09-.37.32-.41.38,1.19.17,2.43.32,3.64.28,2.35.37,4.72.51,7.08.19,2.99.36,5.98.54,8.97-.1.61.17,1.19.16,1.8,0,.17,0,.33,0,.5.15,2.25.32,4.51.44,6.77.16,2.93.29,5.87.49,8.8.21,3.04.49,6.07.66,9.12.19,3.5.3,7.02.55,10.52.06.95.05,1.91.17,2.85.25,2.21.32,4.44.48,6.66.08,1.19.06,2.4.19,3.57.32,2.77.35,5.56.59,8.33Z" style="fill: #646364; stroke-width: 0px;"/>
      <path d="m64.72,6.56h-.01c-.39-.1-.76-.24-1,.31-.21.46-.48.44-.7-.07-.64-1.52-1.6-2.79-3.03-3.66-1.32-.8-2.74-1.33-4.31-1.35-.05-.09-.09-.22-.17-.26-.25-.12-.51-.25-.44-.59.09-.38.43-.25.67-.29.53-.09,1.05-.19,1.58-.29.11-.01.23-.02.34-.03.08,0,.15.01.23.02.11.13.26.14.42.13,1.8.56,3.29,1.64,4.71,2.82.21.71.79,1.19,1.16,1.8.16.49.5.92.56,1.45Z" style="fill: #e82f3a; stroke-width: 0px;"/>
      <path d="m76.03,11.29h-3.25c1.08-.19,2.17-.19,3.25,0Z" style="fill: #2c2c2b; stroke-width: 0px;"/>
      <path d="m80.48,11.33c-.33.24-.65.25-.98,0,.32-.23.65-.23.98,0Z" style="fill: #2c2c2b; stroke-width: 0px;"/>
      <path d="m89.89,20.02c-.03-.11-.05-.22-.08-.32.13.08.19.18.08.32Z" style="fill: #1d1c1c; stroke-width: 0px;"/>
      <path d="m51.14,26.44c-.36.25-.68.08-.88.3-.11.02-.22.04-.32.05-1.54,0-3.08,0-4.62,0-2.19,0-4.37,0-6.56,0-1.21,0-2.41-.01-3.62-.01-.06.04-.13.08-.19.12-.21,0-.41-.01-.62-.01-.07-.04-.13-.12-.2-.12-2.41.05-4.82-.22-7.22.17-1.58,0-3.15-.32-4.74-.16-1.45,0-2.89-.03-4.34-.02-.53,0-1.09-.15-1.6.13-1.52-.2-3.05-.16-4.57-.11h-5.43c-1.58,0-3.16,0-4.75,0-.49-.16-.9-.39-.87-1,0-.07,0-.14,0-.21,0-.09,0-.19-.01-.28.06-.23.06-.46-.01-.7-.02-.32-.04-.65-.05-.97.06-.65.06-1.31-.02-1.96.06-.6.06-1.2-.04-1.8h.02c.19-.13.3-.29.3-.52l.02-.02c.49-.07.97-.14,1.45-.21.45,0,.91-.01,1.36-.02.56.09,1.12.11,1.67-.02.46-.06.98.3,1.39-.18,0-.02.02-.04.02-.05,0-.04-.02-.07-.03-.11-.02-1.33-.04-2.66-.06-3.99.01-.01.03-.03.03-.04,0-.03-.02-.06-.03-.1v-.35c.11-.55.17-1.09-.03-1.63h-.02c.29-.91.96-1.28,1.84-1.31.92-.03,1.85,0,2.77,0,.29.22.63.14.96.14,3.75,0,7.49,0,11.24,0,.27,0,.58-.09,1,.32-1.24,0-2.26.03-3.28,0-.82-.03-1.57.19-2.3.5-.23.1-.48.21-.47.5,0,.29.28.3.48.37.77.26,1.55.52,2.33.77.16.05.35.06.32.29-.02.17-.19.15-.31.22-1.25.65-2.6,1.04-3.98,1.32-2.96.61-5.92,1.23-8.91,1.63-.7.09-1.1.49-1.06,1.27.04.72.62.28.94.36.34.08.71.02,1.06.02,8.13,0,16.25,0,24.37.02.89,0,1.79.08,2.8.49-.28.1-.35.14-.43.15-.32.03-.72-.02-.86.34-.17.43.33.5.55.7.28.26.62.45.9.71.6.57,1.33,1.09,1.75,1.78,1.13,1.86,2.67,2.85,4.86,2.92.73.03,1.52-.22,2.18.03.86.33,1.71.25,2.56.27,1.05.02,2.1,0,3.28,0Z" style="fill: #f9444d; stroke-width: 0px;"/>
      <path d="m.59,25.31c-.13-.23-.13-.46-.01-.7.08.23.07.46.01.7Z" style="fill: #545353; stroke-width: 0px;"/>
      <path d="m.61,25.8s-.04-.1-.04-.15c0-.02.02-.04.04-.06,0,.07,0,.14,0,.21Z" style="fill: #545353; stroke-width: 0px;"/>
      <path d="m57.65.33c-.11.01-.23.02-.34.03-.64-.15-1.3-.18-1.95-.18-6.93,0-13.86,0-20.79,0-.52,0-1.03.08-1.55.12.02-.19.14-.29.33-.31,7.55,0,15.1,0,22.65,0,.58,0,1.14.02,1.66.33Z" style="fill: #2b2a2a; stroke-width: 0px;"/>
      <path d="m58.3.49c-.16,0-.31,0-.42-.13.15,0,.3.01.42.13Z" style="fill: #2b2a2a; stroke-width: 0px;"/>
      <path d="m80.08,26.6c-1.76,0-3.52-.02-5.28.01-.73.02-1.47-.17-2.19.13-.98,0-1.96.02-2.94.02-.62,0-1.23-.01-1.83.15-.09-.13-.23-.13-.36-.13-1.85,0-3.7.02-5.56.03-1.53,0-3.06,0-4.59,0-2.36-.02-4.71-.04-7.07-.06.2-.22.52-.05.88-.3-1.18,0-2.23.02-3.28,0-.86-.02-1.7.06-2.56-.27-.65-.25-1.44,0-2.18-.03-2.19-.07-3.73-1.06-4.86-2.92-.42-.69-1.15-1.2-1.75-1.78-.28-.26-.62-.45-.9-.71-.22-.21-.71-.27-.55-.7.14-.36.54-.31.86-.34.08,0,.15-.05.43-.15-1.01-.41-1.91-.48-2.8-.49-8.12-.02-16.25-.01-24.37-.02-.36,0-.72.06-1.06-.02-.32-.08-.91.37-.94-.36-.04-.79.37-1.18,1.06-1.27,3-.4,5.96-1.02,8.91-1.63,1.38-.29,2.73-.67,3.98-1.32.12-.06.29-.04.31-.22.02-.22-.17-.23-.32-.29-.78-.25-1.56-.51-2.33-.77-.2-.06-.48-.08-.48-.37,0-.29.24-.39.47-.5.73-.31,1.48-.53,2.3-.5,1.02.03,2.05,0,3.28,0-.42-.42-.73-.32-1-.32-3.75,0-7.49,0-11.24,0-.32,0-.66.08-.96-.14,4.49,0,8.98,0,13.47,0,.05.17.14.35.33.22.24-.15.17-.37.02-.56,0-.56,0-1.12,0-1.67.12-.11.35-.23.34-.33-.1-1.02.67-1.5,1.25-2.1.15-.15.25-.36.37-.54.15-.24.33-.44.64-.46-.23.7-.47,1.39-.7,2.08-.19.59.08.98.65.85.72-.17,1.49-.33,1.74-1.25.11-.43.43-.81.64-1.21.18-.36.44-.22.7-.12-.91.86-1.33,1.93-1.24,3.19-.01.08-.03.15-.04.22-.1.5-.11,1-.03,1.5.03.14.13.13.24.11,1.04,0,2.09.01,3.14.01.32.01.65.04.98.04h21.37c.82,0,1.64-.03,2.45-.04,1.15.04,2.3.08,3.45-.02.17-.1.11-.23.02-.35.02-.02.04-.03.04-.05,0-.04-.03-.07-.04-.11.04-.12.08-.25.12-.38.03-.16.05-.31.08-.46.11.44.18.81.58,1.17.46.41.14.9-.36,1.18-.38.21-.8.35-1.18.56-.51.29-.5.59.03.87.28.15.69.19.68.62,0,.46-.43.52-.73.67-1.78.9-3.75,1.14-5.65,1.58-1.38.31-2.73.76-4.15.89-1.38.12-2.75.38-4.14.46-1.9.12-3.8.34-5.69.52-.98.09-1.95.19-2.92.29-.23.02-.49-.09-.73.18.29.24.63.14.92.14,9.05,0,18.11.01,27.16.01.14,0,.28-.02.41,0,.35.06.9-.21.98.28.05.32-.49.31-.78.42-.46.17-.65.49-.37.87.94,1.27.98,2.94,1.88,4.23.64.91,1.44,1.55,2.56,1.56,3.31.04,6.62.02,9.93.02.16,0,.31,0,.48.16Z" style="fill: #e82f3a; stroke-width: 0px;"/>
      <path d="m67.67,30.88c-.11,3.57-.18,7.15-.35,10.72-.11,2.34-.23,4.68-.32,7.03-.17,4.17-.39,8.34-.51,12.51-.07,2.34-.23,4.68-.31,7.03-.12,3.57-.39,7.13-.5,10.7-.08,2.59-.22,5.17-.32,7.76-.11,2.83-.24,5.67-.34,8.5-.09,2.56-.23,5.12-.32,7.68-.09,2.64-.3,5.28-.3,7.93,0,.4-.15.58-.54.66-1.15.23-2.29.49-3.44.74-.41.09-.48-.07-.48-.48-.05-3.99.17-7.98.24-11.96.04-2.24-.04-4.48.14-6.71.2-2.43,0-4.86.18-7.28.16-2.24-.02-4.48.15-6.71.28-3.73.3-7.47.35-11.21.03-2.67.08-5.34.16-8.01.14-4.45.25-8.9.34-13.35.02-1.25.09-2.51.11-3.76.07-3.55.08-7.1.2-10.65.04-1.03.13-2.07.14-3.1.53.17.38.82.77,1.08,1.04.69,2.23.98,3.4,1.36.64.21,1.06-.29,1.58-.47Z" style="fill: #2f2f2f; stroke-width: 0px;"/>
      <path d="m31.37,112.32c-.52.03-1.01-.07-1.47-.33.02-3.41-.16-6.82-.3-10.23-.19-4.56-.35-9.11-.5-13.67-.09-2.62-.06-5.24-.23-7.86-.11-1.69-.02-3.39-.16-5.07-.24-2.93-.26-5.88-.42-8.82-.15-2.72-.24-5.44-.34-8.16-.12-3.04-.24-6.09-.31-9.13-.04-1.84-.15-3.69-.21-5.52-.08-2.47,0-4.95-.35-7.4.01-.66.02-1.32.03-1.98.06-1.59-.31-3.18-.03-4.78.1.05.25.08.27.15.27.86.95,1.06,1.74,1.24,1.08.25,2.15.58,3.19.99,1.12.44,1.09.49,1.71-.49.06-.1.21-.15.32-.22.07,1.69.11,3.39.13,5.08.07,6.75.22,13.5.35,20.25.12,5.74.14,11.48.21,17.22,0,.14,0,.27,0,.41.28,3.85.02,7.7.27,11.55-.37.02-.49-.2-.46-.52.05-.55-.04-1.1-.18-1.62-.25-.91-.03-1.86-.24-2.77-.04-.17-.06-.42-.3-.44-.28-.02-.36.24-.39.44-.11.64-.15,1.3-.29,1.94-.46,2.11-.64,4.26-.85,6.39-.25,2.58-.45,5.15-1.04,7.68-.37,1.55-.28,3.15-.54,4.7-.47,2.74-.82,5.47-.61,8.26.08,1.01-.26,2.14.99,2.71Z" style="fill: #545353; stroke-width: 0px;"/>
      <path d="m25.14,111.02c-1.53-.32-3.06-.63-4.48-1.32-.21-1.43-.15-2.88-.25-4.32-.26-3.61-.38-7.24-.53-10.86-.13-3.13-.43-6.25-.54-9.38-.04-1.19-.05-2.39-.13-3.59-.17-2.57-.4-5.14-.45-7.71-.03-1.33-.14-2.65-.2-3.98-.08-1.78-.19-3.57-.27-5.36-.09-1.84-.29-3.68-.22-5.52.01-.29.09-.61-.15-.86-.01-.11-.02-.22-.03-.33,0-.21,0-.43,0-.64.01-.22.02-.44.03-.66-.03-.77.1-1.55-.2-2.29,0-.66.01-1.32.02-1.98,0-.27-.01-.54-.02-.81-.06-.28-.11-.56-.17-.84.11-.74.09-1.47-.11-2.19-.11-6.88-.82-13.74-.85-20.63.2.03.43.09.44.3.03,1,.75,1.13,1.51,1.26.48.08.97.18,1.43.32.8.24,1.57.35,2.19-.39l.21,2.94c.13,3.39.16,6.78.43,10.16-.14.29-.14.58.01.87,0,.27.01.53.02.8,0,3.22.19,6.43.32,9.65.13,3.22.19,6.43.31,9.65.14,3.62.21,7.25.34,10.87.12,3.27.18,6.53.33,9.8.17,3.76.24,7.52.36,11.29.07,2.39.23,4.79.27,7.18.06,2.86.38,5.71.37,8.58Z" style="fill: #545353; stroke-width: 0px;"/>
      <path d="m35.28,85.55c-.25-3.85,0-7.7-.27-11.55,0-.14,0-.27,0-.41-.07-5.74-.1-11.48-.21-17.22-.14-6.75-.28-13.5-.35-20.25-.02-1.69-.06-3.39-.13-5.08,0-.82-.01-1.64-.02-2.46.2-.55-.27-1.13.05-1.68.21,0,.41,0,.62.01.06-.04.13-.08.19-.13,1.21,0,2.41,0,3.62.01.01.26.03.53.04.79-.1.61.03,1.2.12,1.79.06,3.17-.05,6.34.12,9.51.18,3.36,0,6.72.17,10.09.18,3.38-.03,6.78.17,10.17.18,3.14-.03,6.28.17,9.43.17,2.75.07,5.52.14,8.28.11,4.04.16,8.09.22,12.14.01.82.01,1.64.02,2.46,0,.33.01.67.02,1,.04.68.11,1.35.12,2.03.02,2.1.02,4.19.03,6.29,0,.29-.06.6.13.87,0,.21,0,.43,0,.64,0,.11,0,.22,0,.34,0,.71,0,1.42.01,2.13,0,1.15,0,2.29.01,3.44,0,1.69,0,3.39.01,5.08-1.49-.1-3-.1-4.46-.47,0-.16,0-.33,0-.49,0-.39-.01-.77-.02-1.16v-.47c.07-1.77-.09-3.54-.11-5.3-.05-4.08-.08-8.16-.34-12.24l-.02-3.98c0-.44,0-.88-.01-1.32,0-.6,0-1.19-.01-1.79,0-.17,0-.34,0-.51Z" style="fill: #1d1c1c; stroke-width: 0px;"/>
      <path d="m45.33,26.8c1.54,0,3.08,0,4.61,0,.05.16.11.31.16.47v2.3c-.03,1.72-.09,3.44-.14,5.16-.16,5.49-.02,10.99-.15,16.48-.17,7.13-.02,14.27-.21,21.41-.1,3.88.03,7.76-.12,11.64-.17,4.42.02,8.86-.19,13.28-.21.04-.35.15-.32.39.03.25.22.27.42.27-.04,1.32-.08,2.63-.12,3.95-.32.07-.33.32-.33.57,0,1.2,0,2.4,0,3.6,0,.25,0,.51.32.58,0,.17,0,.33,0,.5-.56,0-.49.41-.48.75.05,1.6-.4,3.19-.06,4.79.06.31-.18.34-.41.37-.78.1-1.56.23-2.35.15.03-2.51.1-5.01-.12-7.52,0-1.76,0-3.51-.01-5.27,0-.77,0-1.54-.01-2.31-.05-4.67.02-9.34-.11-14.02-.2-7.65-.07-15.3-.15-22.95-.11-10.03-.17-20.06-.23-30.1,0-.14,0-.27-.01-.41,0-.66,0-1.31,0-1.97,0-.7,0-1.41,0-2.11Z" style="fill: #1d1c1c; stroke-width: 0px;"/>
      <path d="m83.92,30.88c-.3,1.64-.16,3.32-.3,4.97-.28,3.31-.39,6.63-.65,9.94-.14,1.76-.24,3.53-.35,5.3-.21,3.4-.39,6.8-.65,10.19-.16,2.12-.21,4.25-.35,6.37-.19,2.91-.44,5.81-.63,8.71-.07,1.01-.1,2.01-.15,3.02-.08,1.72-.11,3.44-.24,5.15-.22,2.8-.28,5.6-.58,8.39-.11,1-.09,2.01-.17,3.02-.22,2.8-.35,5.6-.52,8.4-.02.41-.2.74-.5,1-1.14.94-2.43,1.64-3.92,2.37,0-.55-.03-.97,0-1.38.24-2.61.35-5.22.5-7.83.21-3.72.54-7.44.78-11.16.07-1.09.08-2.18.17-3.27.26-3.34.46-6.68.65-10.03.06-1.03.12-2.07.17-3.1.17-3.46.39-6.91.65-10.36.16-2.09.22-4.19.35-6.29.2-3.15.43-6.3.63-9.46.06-.9.1-1.8.16-2.69.17-2.47.23-4.96.36-7.44.08-1.6.22-3.21.33-4.81.33.03.41.26.5.54.53,1.64,2.21,1.99,3.37.71.11-.12.21-.24.39-.27Z" style="fill: #2b2a2a; stroke-width: 0px;"/>
      <path d="m49.29,97.53c.21-4.43.02-8.86.19-13.28.15-3.88.02-7.76.12-11.64.19-7.13.04-14.27.21-21.41.13-5.5,0-10.99.15-16.48.05-1.72.11-3.44.14-5.16.21.01.38.1.45.3.27.75.87,1.1,1.59,1.27.59.14,1.13.4,1.69.59,1.11.38,2.26,1.28,3.36-.05,0,1.31,0,2.62-.02,3.93-.06,4.34-.04,8.68-.22,13.01-.09,2.29-.03,4.58-.14,6.87-.19,3.81-.24,7.63-.32,11.44,0,.29-.11.59-.16.88-.42-.11-.3-.46-.32-.74-.08-1.31.12-2.61.16-3.92.07-2.65-.1-5.3.09-7.95.03-.41-.08-.86-.41-1.27-.35.38-.78.56-.85,1.2-.28,2.59-.54,5.19-1.16,7.73-.2.82-.04,1.64-.15,2.45-.32,2.32-.61,4.64-.98,6.95-.72,4.49-1.24,9-1.83,13.51-.4,3.04-.6,6.07-.61,9.13,0,.88.05,1.76-.02,2.63-.23,2.81-.42,5.63-.47,8.45-.03,1.58.15,3.18-.18,4.74-.21,1-.28,1.91.67,2.58-1.08.03-1.04.03-1.01-1.1.04-1.6.01-3.19.01-4.79,0-.17,0-.33,0-.5,0-1.59,0-3.17,0-4.76.04-1.32.08-2.63.12-3.95.03-.23.06-.46-.1-.66Z" style="fill: #3d3c3c; stroke-width: 0px;"/>
      <path d="m50.25,113.29c-.95-.67-.88-1.58-.67-2.58.33-1.56.15-3.16.18-4.74.05-2.82.24-5.64.47-8.45.07-.87.02-1.75.02-2.63,0-3.06.21-6.09.61-9.13.59-4.51,1.12-9.02,1.83-13.51.37-2.31.66-4.63.98-6.95.11-.81-.05-1.63.15-2.45.62-2.54.88-5.14,1.16-7.73.07-.64.5-.83.85-1.2.33.41.44.86.41,1.27-.19,2.65-.01,5.3-.09,7.95-.04,1.31-.24,2.61-.16,3.92.02.28-.1.63.32.74,0,.71,0,1.43,0,2.14-.24.33-.24.65,0,.98,0,.22,0,.44,0,.66-.32.07-.32.32-.33.57-.05,2.17,0,4.33-.27,6.5-.23,1.84.19,3.73.11,5.61,0,.17.03.32.16.45,0,.49,0,.99,0,1.48-.34.37-.52,2.52-.25,2.92.01.02.05.02.08.02,0,.49.02.98.02,1.47-.27.49-.26.99-.01,1.49,0,.28,0,.55,0,.83-.49.43-.48.87,0,1.31-.12,3.05-.06,6.11-.2,9.16-.09,2.02-.03,4.04-.12,6.05-.04.95-.12,1.9-.15,2.85-.01.51-.37.59-.71.62-1.46.14-2.93.24-4.39.35Z" style="fill: #363534; stroke-width: 0px;"/>
      <path d="m25.14,111.02c.01-2.86-.31-5.71-.37-8.58-.05-2.39-.2-4.78-.27-7.18-.12-3.76-.19-7.53-.36-11.29-.15-3.27-.21-6.53-.33-9.8-.13-3.62-.2-7.25-.34-10.87-.13-3.22-.19-6.43-.31-9.65-.13-3.22-.31-6.43-.32-9.65.33.06.44.31.48.59.07.59.17,1.19.18,1.79.03,4.02-.05,8.05.34,12.07.07.73-.03,1.48.06,2.18.13,1.06.12,2.12.24,3.18.33,2.87.4,5.76,1.1,8.58.06.24-.03.56.28.77.29-.3.48-.63.62-1.02.32-.88.44-1.79.59-2.7.4-2.31.82-4.6.72-6.96-.17-4.23-.45-8.45-.34-12.69.01-.44.03-.88-.04-1.31-.34-2.31-.09-4.63-.21-6.95-.09-1.61.17-3.26-.04-4.89-.03-.24-.02-.44.26-.51.35,2.46.27,4.94.35,7.4.06,1.84.17,3.68.21,5.52.07,3.04.19,6.09.31,9.13.1,2.72.19,5.44.34,8.16.16,2.94.19,5.88.42,8.82.14,1.69.05,3.38.16,5.07.17,2.61.15,5.24.23,7.86.15,4.56.3,9.11.5,13.67.15,3.41.32,6.82.3,10.23-1.65-.03-3.2-.52-4.76-.97Z" style="fill: #1d1c1c; stroke-width: 0px;"/>
      <path d="m45.81,98.36c0,.77,0,1.54.01,2.31-.22.22-.16.5-.16.77,0,1.24,0,2.49,0,3.73,0,.27-.04.55.18.77.23,2.5.16,5.01.12,7.52-1.9-.05-3.8-.11-5.69-.16,0-1.69,0-3.39-.01-5.08.09-.06.24-.11.25-.18.1-1.03.12-2.06,0-3.08,0-.07-.16-.12-.25-.18,0-.71,0-1.42-.01-2.13.1-.02.23-.03.23-.17,0-.13-.13-.15-.23-.17,0-.21,0-.43,0-.64.46-.12.32-.5.34-.81.17-2.64-.2-5.25-.33-7.88-.01-.23-.02-.44-.3-.51,0-.33-.01-.67-.02-1,.5.02.47-.34.48-.67.05-1.8.03-3.6.13-5.4.18-3.23.14-6.48.2-9.72.02-.98.22-1.94.37-2.91.2-1.27.83-2.5.5-3.86-.07-.3.09-.71.26-1.02.93-1.75,1.19-3.66,1.32-5.6.02-.36-.01-.77.28-.99.41-.31.56-.68.6-1.18.02-.24.18-.58.5-.56.31.03.24.37.29.6.05.27.14.54.14.8.03,3.65-.05,7.3.3,10.95.14,1.39-.11,2.81-.13,4.22-.02,2.07.08,4.15.13,6.22.13,5.08-.1,10.17.19,15.25.02.28-.11.63.31.75Z" style="fill: #3d3c3c; stroke-width: 0px;"/>
      <path d="m77.02,30.55c-.16,2.8-.32,5.6-.47,8.4-.06,1.12-.1,2.23-.14,3.35-.1,2.61-.34,5.22-.39,7.84-.06,3.05-.25,6.1-.48,9.14-.22,2.93-.32,5.86-.49,8.79-.18,3.04-.42,6.08-.49,9.13,0,.43-.1.86-.16,1.29-.46-.13-.32-.52-.32-.82-.03-2.46.29-4.9.37-7.35.04-1.15-.1-2.3.01-3.41.16-1.55.12-3.11.21-4.65.18-2.96.53-5.93.38-8.91-.01-.28.11-.6-.14-.85-.34.13-.31.42-.35.68-.38,2.71-.41,5.46-1.13,8.14-.47,1.76-.72,3.57-.96,5.38-.35,2.72-1.04,5.42-1.14,8.16-.1,2.59-.43,5.16-.51,7.74-.09,3.05-.68,6.07-.56,9.14.02.49.12,1.16-.47,1.53-.11-3.02.14-6.03.32-9.03.08-1.3.05-2.61.15-3.92.16-2.15.09-4.31.21-6.46.21-3.73.37-7.45.51-11.18.09-2.36.21-4.73.33-7.09.18-3.59.33-7.18.48-10.77.07-1.65.12-3.31.18-4.97.13-3.54.4-7.07.47-10.61.09.06.25.11.25.17.04,1.36,1.14,1.67,2.1,2.05,1.18.47,1.27.4,1.97-.74.05-.08.18-.11.27-.16Z" style="fill: #2c2c2b; stroke-width: 0px;"/>
      <path d="m69.79,93.28c.59-.37.49-1.04.47-1.53-.12-3.07.47-6.09.56-9.14.08-2.58.41-5.15.51-7.74.11-2.74.79-5.44,1.14-8.16.23-1.81.49-3.62.96-5.38.72-2.67.75-5.43,1.13-8.14.04-.26.01-.55.35-.68.26.25.13.57.14.85.15,2.98-.2,5.94-.38,8.91-.09,1.55-.05,3.1-.21,4.65-.11,1.11.03,2.26-.01,3.41-.09,2.45-.4,4.89-.37,7.35,0,.3-.14.69.32.82,0,.27,0,.55,0,.82-.38.4-.48,1.52-.17,1.97,0,.6,0,1.21,0,1.81-.41.16-.42.32,0,.49-.16,2.67-.31,5.33-.47,8-.06.95-.08,1.91-.15,2.86-.19,2.72-.24,5.45-.37,8.17-.09,1.82-.22,3.65-.32,5.47-.02.35-.16.57-.47.69-.98.35-1.96.7-2.93,1.05-.38.14-.57.06-.54-.39.1-1.66.19-3.32.29-4.98,0-.14.04-.27.03-.41-.06-2.57.24-5.13.2-7.7-.02-1.02.04-2.07.29-3.08Z" style="fill: #2b2a2a; stroke-width: 0px;"/>
      <path d="m35.3,87.85c0,.44,0,.88.01,1.32-.27,1.33-.3,2.66.02,3.98.26,4.08.29,8.16.34,12.24.02,1.77.18,3.53.11,5.3-.4.16-.4.32,0,.48,0,.39.01.77.02,1.16-.6.19-1.26.03-1.84.36-.21-.02-.42-.04-.63-.05-.5-.47-1.05-.6-1.67-.27-.1-.01-.19-.02-.29-.04-1.25-.57-.92-1.7-.99-2.71-.21-2.79.15-5.52.61-8.26.26-1.54.17-3.15.54-4.7.59-2.52.79-5.1,1.04-7.68.21-2.13.4-4.28.85-6.39.14-.64.18-1.29.29-1.94.04-.21.11-.46.39-.44.24.02.26.27.3.44.21.91-.01,1.85.24,2.77.14.52.23,1.07.18,1.62-.03.32.09.54.46.52,0,.17,0,.34,0,.51-.44.5-.44,1.3.01,1.79Z" style="fill: #464545; stroke-width: 0px;"/>
      <path d="m17.91,58.13c.24.25.16.57.15.86-.08,1.85.13,3.69.22,5.52.08,1.78.2,3.57.27,5.36.06,1.32.17,2.65.2,3.98.05,2.57.28,5.14.45,7.71.08,1.19.09,2.4.13,3.59.11,3.13.41,6.25.54,9.38.15,3.62.28,7.24.53,10.86.1,1.44.04,2.89.25,4.32-1.37-.33-2.69-.81-3.92-1.51-.25-2.77-.27-5.55-.59-8.32-.13-1.17-.12-2.39-.2-3.58-.15-2.22-.22-4.45-.48-6.66-.11-.94-.1-1.9-.17-2.85-.24-3.5-.35-7.02-.55-10.52-.17-3.04-.45-6.08-.65-9.12-.2-2.93-.33-5.87-.49-8.8-.12-2.26-.29-4.51-.45-6.76.15,0,.31,0,.46,0,0,.88.27,1.74.16,2.63.1,1.82.19,3.63.3,5.45.16,2.58.3,5.17.53,7.74.15,1.6.02,3.22.23,4.8.33,2.44.4,4.89.53,7.33.14,2.73.36,5.44.89,8.11.26,1.31.19,2.67.59,3.95.08.26.15.57.52.5.31-.05.32-.32.34-.58.08-.7.17-1.39.41-2.07.34-.96.42-2.02.33-2.98-.22-2.21-.11-4.42-.19-6.62-.12-3.24-.29-6.49-.24-9.75.06-3.33-.47-6.64-.33-9.98,0-.16-.04-.33-.08-.48-.15-.53-.08-1.03.25-1.48Z" style="fill: #1d1c1c; stroke-width: 0px;"/>
      <path d="m57.18,31.68c-1.09,1.33-2.25.43-3.36.05-.56-.19-1.1-.45-1.69-.59-.72-.17-1.32-.52-1.59-1.27-.07-.2-.24-.29-.45-.3,0-.77,0-1.53,0-2.3.73.36,1.45.74,2.29.81.74.06,1.45.28,2.15.49.95.29,1.88.62,2.77-.15-.06,1.09.16,2.19-.13,3.27Z" style="fill: #2f2f2f; stroke-width: 0px;"/>
      <path d="m67.67,30.88c-.52.18-.94.68-1.58.47-1.16-.38-2.36-.67-3.4-1.36-.39-.26-.25-.91-.77-1.08,0-.7,0-1.4,0-2.1,1.85,0,3.7-.02,5.56-.03.14,0,.27,0,.36.14.04,1.33-.04,2.65-.17,3.96Z" style="fill: #252524; stroke-width: 0px;"/>
      <path d="m77.02,30.55c-.09.05-.22.08-.27.16-.7,1.14-.78,1.21-1.97.74-.96-.38-2.06-.68-2.1-2.05,0-.06-.16-.11-.25-.17.3-.8.11-1.62.15-2.44,1.04-.03,2.07-.1,3.11.04.04.15.04.33.23.35.25.03.26-.18.3-.35.3-.01.6-.02.9-.03.23,1.25-.19,2.49-.11,3.74Z" style="fill: #252424; stroke-width: 0px;"/>
      <path d="m83.92,30.88c-.18.02-.27.14-.39.27-1.16,1.28-2.83.93-3.37-.71-.09-.28-.17-.51-.5-.54-.1-.78.14-1.53.16-2.3.3.01.46.25.67.42.77.64,2.06.76,2.8.27.26-.18.42-.5.79-.52-.06,1.04-.11,2.08-.17,3.12Z" style="fill: #252424; stroke-width: 0px;"/>
      <path d="m57.31,28.41c-.89.76-1.82.44-2.77.15-.7-.21-1.41-.43-2.15-.49-.83-.06-1.56-.44-2.29-.81-.05-.16-.11-.31-.16-.47.11-.02.21-.03.32-.05,2.36.02,4.71.04,7.07.06,0,.54,0,1.07-.01,1.6Z" style="fill: #2b2a2a; stroke-width: 0px;"/>
      <path d="m84.09,27.76c-.37.02-.53.34-.79.52-.74.49-2.03.37-2.8-.27-.21-.17-.37-.4-.67-.42,0-.23,0-.45,0-.68,1.42-.25,2.84-.13,4.26-.1,0,.32,0,.63,0,.95Z" style="fill: #1d1c1c; stroke-width: 0px;"/>
      <path d="m56,84.73c-.12-.12-.17-.28-.16-.45.08-1.88-.34-3.77-.11-5.61.27-2.18.22-4.33.27-6.5,0-.25,0-.5.33-.57,0,3.59-.23,7.18-.19,10.78,0,.78-.15,1.57-.13,2.36Z" style="fill: #3d3c3c; stroke-width: 0px;"/>
      <path d="m55.83,89.17s-.06,0-.08-.02c-.27-.4-.09-2.56.25-2.92.06.99-.02,1.97-.17,2.95Z" style="fill: #3d3c3c; stroke-width: 0px;"/>
      <path d="m33.97,112.68c.57-.33,1.24-.16,1.84-.36,0,.16,0,.33,0,.49-.61-.05-1.24.11-1.84-.14Z" style="fill: #545353; stroke-width: 0px;"/>
      <path d="m74.23,81.29c-.31-.45-.21-1.56.17-1.97.03.66-.01,1.32-.17,1.97Z" style="fill: #2c2c2b; stroke-width: 0px;"/>
      <path d="m31.66,112.36c.63-.33,1.18-.2,1.67.27-.57,0-1.12-.12-1.67-.27Z" style="fill: #545353; stroke-width: 0px;"/>
      <path d="m55.83,94.26c-.48-.44-.48-.87,0-1.31,0,.44,0,.87,0,1.31Z" style="fill: #3d3c3c; stroke-width: 0px;"/>
      <path d="m55.84,92.12c-.25-.5-.26-.99.01-1.49,0,.5,0,.99-.01,1.49Z" style="fill: #3d3c3c; stroke-width: 0px;"/>
      <path d="m56.33,70.94c-.24-.33-.24-.65,0-.98,0,.33,0,.65,0,.98Z" style="fill: #3d3c3c; stroke-width: 0px;"/>
      <path d="m74.23,83.59c-.41-.16-.41-.33,0-.49,0,.16,0,.33,0,.49Z" style="fill: #2c2c2b; stroke-width: 0px;"/>
      <path d="m87.38,26.81c.21,0,.42,0,.63,0-.21.16-.42.16-.63,0Z" style="fill: #1d1c1c; stroke-width: 0px;"/>
      <path d="m55.05.94c-.07.34.19.46.44.59.08.04.11.17.17.26-6.83,0-13.66,0-20.49.02-.98,0-1.96.11-2.9.38-1.77.51-3.19,1.51-4.21,3.06-.15.23-.32.44-.48.65-.31.03-.49.22-.64.46-.12.18-.22.39-.37.54-.58.6-1.35,1.08-1.25,2.1.01.1-.22.22-.34.33-.11-3.3,2.31-7.24,5.69-8.39.77-.26,1.53-.52,2.33-.64.52-.04,1.03-.12,1.55-.12,6.93,0,13.86,0,20.79,0,.66,0,1.31.03,1.95.18-.53.09-1.05.19-1.58.29-.25.04-.59-.09-.67.29Z" style="fill: #f9444d; stroke-width: 0px;"/>
      <path d="m57.84,4.81c-.99-.33-2.02-.41-3.07-.41-6.47.02-12.95.02-19.42.01-1.21,0-2.37.18-3.46.72,0-.88.78-1.04,1.33-1.15,2.28-.45,4.59-.49,6.9-.21.08.01.16.01.25.01,3.8-.07,7.59.3,11.39.16,1.59-.06,3.16.17,4.75.18.53,0,1.01.22,1.33.69Z" style="fill: #e82f3a; stroke-width: 0px;"/>
      <path d="m65.19,8.36c-.67-.46-.44-1.17-.48-1.8.34.56.43,1.17.48,1.8Z" style="fill: #e82f3a; stroke-width: 0px;"/>
      <path d="m76.23,26.85c-.04.17-.05.38-.3.35-.19-.02-.2-.21-.23-.35.18,0,.36,0,.54,0Z" style="fill: #161615; stroke-width: 0px;"/>
      <path d="m61.07,10.38c-.04.13-.08.26-.12.38,0-.16,0-.31,0-.46.01.01.02.02.03.02.03.03.06.04.09.06Z" style="fill: #252424; stroke-width: 0px;"/>
      <path d="m65.51,11.26h-.06s-.02-.08-.02-.08c.03.02.06.04.09.08Z" style="fill: #2c2c2b; stroke-width: 0px;"/>
      <path d="m31.88,5.1c-.06.07-.11.15-.17.22.06-.07.11-.15.17-.22Z" style="fill: #e82f3a; stroke-width: 0px;"/>
      <path d="m17.91,58.13c-.33.45-.4.94-.25,1.48.04.16.09.32.08.48-.15,3.34.38,6.65.33,9.98-.06,3.25.11,6.5.24,9.75.08,2.2-.03,4.41.19,6.62.09.96.01,2.03-.33,2.98-.24.68-.34,1.37-.41,2.07-.03.25-.04.52-.34.58-.37.06-.44-.24-.52-.5-.39-1.29-.33-2.64-.59-3.95-.53-2.67-.75-5.38-.89-8.11-.13-2.44-.19-4.89-.53-7.33-.22-1.58-.09-3.2-.23-4.8-.24-2.58-.37-5.16-.53-7.74-.11-1.81-.2-3.63-.3-5.45.77.25.77.94.8,1.54.03.63.1,1.25.21,1.87.06.32.23.6.57.62.37.02.45-.3.56-.59.25-.69.12-1.41.22-2.11.23-1.67.62-3.32.6-5.02-.02-1.52-.06-3.04-.03-4.56.05-2.8-.13-5.6-.18-8.41-.03-1.73-.36-3.47-1.18-5.04-.42-.8-.96-1.52-1.96-1.71-.56-.11-.9.05-.91.61-.02,1.5-.12,3.02.03,4.51.27,2.63.42,5.27.58,7.9.09,1.42.21,2.82.45,4.22.07.43.19.86-.1,1.26-.15,0-.3,0-.46,0-.18-2.99-.35-5.98-.54-8.97-.15-2.36-.23-4.74-.52-7.08-.15-1.22.06-2.46-.32-3.64,0-.44.01-.88.02-1.32,0-.48.01-.97.02-1.45,1.53-.05,3.05-.09,4.57.11.32.2.06.63.34.84.03,6.89.75,13.74.85,20.63-.27.75-.29,1.48.11,2.19.06.28.11.56.17.84-.43.28-.43.55.02.81,0,.66-.01,1.32-.02,1.98-.45.55-.35,1.73.2,2.29-.01.22-.02.44-.03.66-.43.21-.43.43,0,.64.01.11.02.22.03.33Z" style="fill: #252424; stroke-width: 0px;"/>
      <path d="m11.65,28.25c0,.44-.01.88-.02,1.32-.24.04-.25.23-.32.41-.25.6-.78.64-1.3.51-.71-.17-1.38-.46-2.13-.49-.35-.02-.64-.28-.82-.61-.11-.21-.19-.46-.49-.49-.06-.43-.2-.86-.14-1.3.3-.05.49.19.74.27,1.46.48,2.89,1.34,4.48.38Z" style="fill: #545353; stroke-width: 0px;"/>
      <path d="m13.01,49.27c.15,0,.3,0,.46,0,0,.27,0,.55,0,.82.05.11.11.22.16.33,0,.16,0,.33,0,.49-.15.05-.31.11-.46.16.02-.6-.25-1.19-.16-1.8Z" style="fill: #1d1c1c; stroke-width: 0px;"/>
      <path d="m13.17,51.07c.15-.05.31-.11.46-.16.26.22.1.44,0,.66-.15,0-.31,0-.46,0,0-.17,0-.33,0-.5Z" style="fill: #252424; stroke-width: 0px;"/>
      <path d="m.51,21.68c-.26-.23-.16-.55-.18-.83v-.33c.02-.22-.05-.46.15-.64.1.6.1,1.2.04,1.8Z" style="fill: #252424; stroke-width: 0px;"/>
      <path d="m.33,20.53v.33h-.33c.02-.2.13-.31.33-.33Z" style="fill: #2c2c2b; stroke-width: 0px;"/>
      <path d="m22.36,32.18c-.07-.98-.14-1.96-.21-2.94.01-.81.02-1.63.03-2.44,1.59-.16,3.16.16,4.74.16,0,.21.02.43.03.64.01.6-.11,1.2.12,1.79-.28,1.59.09,3.18.03,4.78-.54-.18-.31-.64-.32-.98-.07-1.62-.96-2.74-2.47-3.05-1.11-.22-1.56.13-1.64,1.29-.02.28.12.63-.3.75Z" style="fill: #1d1c1c; stroke-width: 0px;"/>
      <path d="m22.18,26.8c-.01.81-.02,1.63-.03,2.44-.62.74-1.39.63-2.19.39-.47-.14-.95-.24-1.43-.32-.76-.12-1.48-.25-1.51-1.26,0-.21-.24-.27-.44-.3-.28-.21-.02-.65-.34-.84.51-.28,1.06-.12,1.59-.13,1.45-.02,2.9,0,4.34.02Z" style="fill: #464545; stroke-width: 0px;"/>
      <path d="m45.33,26.8c0,.7,0,1.41,0,2.11-.94.57-1.89.27-2.82,0-1.25-.37-2.58-.54-3.69-1.31-.01-.26-.03-.53-.04-.79,2.19,0,4.38,0,6.56,0Z" style="fill: #363534; stroke-width: 0px;"/>
      <path d="m26.95,27.6c0-.21-.02-.43-.03-.64,2.4-.38,4.81-.11,7.22-.17.06,0,.13.08.2.12-.31.55.16,1.12-.05,1.68-.57.16-1.05.73-1.71.45-1.81-.76-3.84-.63-5.63-1.44Z" style="fill: #3d3c3c; stroke-width: 0px;"/>
      <path d="m11.67,26.8c0,.48-.01.97-.02,1.45-1.58.96-3.02.1-4.48-.38-.25-.08-.44-.32-.74-.27-.05-.27,0-.57-.2-.8h5.43Z" style="fill: #464545; stroke-width: 0px;"/>
      <path d="m5.3,19.1c-.56.13-1.11.11-1.67.02.56-.12,1.11-.08,1.67-.02Z" style="fill: #545353; stroke-width: 0px;"/>
      <path d="m2.26,19.14c-.49.07-.97.14-1.45.21.17-.21.43-.22.67-.29.26.03.52.05.78.08Z" style="fill: #545353; stroke-width: 0px;"/>
      <path d="m6.61,14.28c-.01-.55-.02-1.09-.03-1.63.2.53.14,1.08.03,1.63Z" style="fill: #545353; stroke-width: 0px;"/>
      <path d="m.79,19.37c0,.23-.11.39-.3.51-.04-.25.09-.4.3-.51Z" style="fill: #545353; stroke-width: 0px;"/>
      <path d="m6.7,18.87s-.01.04-.02.05c-.02-.03-.03-.07-.04-.11,0-.02.02-.04.03-.05.02.04.03.07.03.11Z" style="fill: #545353; stroke-width: 0px;"/>
      <path d="m6.64,14.73s-.02.03-.03.04c-.02-.04-.02-.09,0-.13.01.03.02.06.03.1Z" style="fill: #545353; stroke-width: 0px;"/>
      <path d="m35.14,26.8c-.06.04-.13.08-.19.13.06-.04.13-.08.19-.13Z" style="fill: #252424; stroke-width: 0px;"/>
      <path d="m24.97,11.58c-.19.12-.28-.05-.33-.22.22-.01.33-.12.35-.34.15.19.22.42-.02.56Z" style="fill: #f9444d; stroke-width: 0px;"/>
      <path d="m29.55,11.27c-.11.03-.21.03-.24-.11.08.04.16.08.24.11Z" style="fill: #252424; stroke-width: 0px;"/>
      <path d="m60.93,11.26c0-.11.02-.23.02-.35.09.12.15.24-.02.35Z" style="fill: #252424; stroke-width: 0px;"/>
      <path d="m29.38,9.45c-.02.07-.03.15-.05.22.02-.07.03-.14.05-.22Z" style="fill: #252424; stroke-width: 0px;"/>
      <path d="m22.36,32.18c.42-.12.28-.48.3-.75.08-1.16.53-1.52,1.64-1.29,1.51.31,2.41,1.43,2.47,3.05.01.34-.21.8.32.98-.01.66-.02,1.32-.03,1.98-.28.07-.29.27-.26.51.21,1.63-.05,3.28.04,4.89.12,2.32-.13,4.64.21,6.95.06.43.05.87.04,1.31-.12,4.23.16,8.46.34,12.69.1,2.36-.33,4.66-.72,6.96-.16.91-.27,1.82-.59,2.7-.14.39-.33.73-.62,1.02-.31-.22-.22-.53-.28-.77-.7-2.82-.77-5.72-1.1-8.58-.12-1.06-.11-2.12-.24-3.18-.09-.7.01-1.45-.06-2.18-.39-4.01-.31-8.04-.34-12.07,0-.6-.1-1.19-.18-1.79-.04-.28-.14-.53-.48-.59,0-.27-.01-.53-.02-.8.26-.29.25-.58-.02-.87-.27-3.38-.3-6.77-.43-10.16Z" style="fill: #252424; stroke-width: 0px;"/>
      <path d="m26.95,27.6c1.79.81,3.82.68,5.63,1.44.67.28,1.14-.29,1.71-.45,0,.82.01,1.64.02,2.46-.11.07-.26.12-.32.22-.62.98-.59.93-1.71.49-1.03-.41-2.11-.74-3.19-.99-.79-.18-1.47-.38-1.74-1.24-.02-.07-.18-.1-.27-.15-.23-.58-.1-1.19-.12-1.79Z" style="fill: #464545; stroke-width: 0px;"/>
      <path d="m17.91,56.49c-.55-.57-.65-1.74-.2-2.29.3.74.16,1.52.2,2.29Z" style="fill: #1d1c1c; stroke-width: 0px;"/>
      <path d="m17.54,50.57c-.4-.71-.38-1.45-.11-2.19.2.72.22,1.45.11,2.19Z" style="fill: #1d1c1c; stroke-width: 0px;"/>
      <path d="m22.79,42.34c.27.29.28.58.02.87-.16-.29-.15-.58-.02-.87Z" style="fill: #1d1c1c; stroke-width: 0px;"/>
      <path d="m17.72,52.22c-.45-.26-.45-.53-.02-.81,0,.27.01.54.02.81Z" style="fill: #1d1c1c; stroke-width: 0px;"/>
      <path d="m17.87,57.8c-.43-.22-.43-.43,0-.64,0,.21,0,.43,0,.64Z" style="fill: #1d1c1c; stroke-width: 0px;"/>
      <path d="m45.81,98.36c-.42-.12-.3-.47-.31-.75-.29-5.08-.07-10.17-.19-15.25-.05-2.07-.15-4.15-.13-6.22.02-1.41.26-2.83.13-4.22-.35-3.65-.27-7.3-.3-10.95,0-.27-.09-.54-.14-.8-.04-.23.02-.58-.29-.6-.31-.03-.48.32-.5.56-.04.5-.19.86-.6,1.18-.29.22-.25.63-.28.99-.13,1.94-.4,3.84-1.32,5.6-.16.3-.33.71-.26,1.02.32,1.36-.3,2.58-.5,3.86-.15.97-.35,1.93-.37,2.91-.06,3.24-.02,6.48-.2,9.72-.1,1.8-.08,3.6-.13,5.4,0,.34.02.69-.48.67,0-.82,0-1.64-.02-2.46-.06-4.05-.11-8.09-.22-12.14-.07-2.76.03-5.53-.14-8.28-.2-3.14.01-6.29-.17-9.43-.19-3.39.01-6.78-.17-10.17-.18-3.36.01-6.73-.17-10.09-.17-3.17-.06-6.34-.12-9.51.55.21.42,1.02,1.03,1.16,1.27.31,2.41.97,3.63,1.39.59.2,1.14.16,1.3-.63.04-.21.17-.4.43-.43,0,.14.01.27.01.41.06,10.03.12,20.06.23,30.1.08,7.65-.04,15.31.15,22.95.12,4.67.05,9.35.11,14.02Z" style="fill: #464545; stroke-width: 0px;"/>
      <path d="m45.31,30.88c-.26.03-.38.22-.43.43-.16.79-.71.84-1.3.63-1.23-.42-2.36-1.08-3.63-1.39-.61-.15-.48-.96-1.03-1.16-.09-.59-.22-1.19-.12-1.79,1.11.77,2.44.95,3.69,1.31.94.27,1.88.57,2.82,0,0,.66,0,1.31,0,1.97Z" style="fill: #3d3c3c; stroke-width: 0px;"/>
      <path d="m39.94,92.47c.28.06.29.28.3.51.12,2.63.5,5.24.33,7.88-.02.31.11.68-.34.81-.19-.27-.13-.58-.13-.87-.01-2.1-.01-4.19-.03-6.29,0-.68-.08-1.35-.12-2.03Z" style="fill: #464545; stroke-width: 0px;"/>
      <path d="m40.24,104.77c.09.06.24.11.25.18.12,1.03.11,2.06,0,3.08,0,.07-.16.12-.25.18,0-1.15,0-2.29-.01-3.44Z" style="fill: #464545; stroke-width: 0px;"/>
      <path d="m35.33,93.15c-.32-1.33-.29-2.65-.02-3.98,0,1.33.01,2.66.02,3.98Z" style="fill: #545353; stroke-width: 0px;"/>
      <path d="m35.3,87.85c-.45-.49-.45-1.29-.01-1.79,0,.6,0,1.19.01,1.79Z" style="fill: #545353; stroke-width: 0px;"/>
      <path d="m35.79,111.17c-.4-.16-.4-.31,0-.48,0,.16,0,.32,0,.48Z" style="fill: #545353; stroke-width: 0px;"/>
      <path d="m40.23,102.3c.1.02.23.03.23.17,0,.13-.13.15-.23.17,0-.11,0-.22,0-.34Z" style="fill: #464545; stroke-width: 0px;"/>
      <path d="m49.27,102.14c0,1.59,0,3.17,0,4.76-.32-.07-.32-.33-.32-.58,0-1.2,0-2.4,0-3.6,0-.25,0-.5.33-.57Z" style="fill: #161615; stroke-width: 0px;"/>
      <path d="m45.84,105.94c-.22-.22-.17-.5-.18-.77,0-1.24,0-2.49,0-3.73,0-.27-.06-.55.16-.77,0,1.76,0,3.51.01,5.27Z" style="fill: #464545; stroke-width: 0px;"/>
      <path d="m49.29,97.53c.16.2.13.43.1.66-.2,0-.39-.02-.42-.27-.03-.23.11-.34.32-.39Z" style="fill: #161615; stroke-width: 0px;"/>
      <path d="m13.63,51.57c.09-.22.26-.44,0-.66,0-.16,0-.33,0-.49.22-.24.03-.29-.16-.33,0-.27,0-.55,0-.82.28-.4.17-.84.1-1.26-.24-1.4-.36-2.8-.45-4.22-.16-2.63-.31-5.27-.58-7.9-.15-1.49-.05-3.01-.03-4.51,0-.56.35-.72.91-.61,1.01.19,1.55.92,1.96,1.71.82,1.57,1.16,3.31,1.18,5.04.04,2.8.22,5.61.18,8.41-.03,1.52.01,3.04.03,4.56.02,1.7-.37,3.35-.6,5.02-.1.7.03,1.42-.22,2.11-.11.3-.19.62-.56.59-.34-.02-.51-.3-.57-.62-.11-.62-.19-1.24-.21-1.87-.03-.6-.03-1.29-.8-1.54.1-.89-.17-1.75-.16-2.63Z" style="fill: #252524; stroke-width: 0px;"/>
      <path d="m13.47,50.09c.19.04.38.09.16.33-.05-.11-.11-.22-.16-.33Z" style="fill: #252424; stroke-width: 0px;"/>
    </g>
  </g>
</svg>